<svg id="a45898f0-47d8-42e9-8d6c-80f3f86767a1" data-name="Planets" xmlns="http://www.w3.org/2000/svg" viewBox="0 0 2000 2000"><defs><style>.aeff593b-e493-4d35-8ac7-75d2cfc054b0{fill:#af929d;}.a090f39d-f992-4a10-844a-29519e2417a2{fill:#826973;}.f22f2d59-5311-4fba-8cb4-8348d8ad281c{fill:#7d5668;}</style></defs><g id="f2a35e55-18d8-4123-92fc-149f4649ec9f" data-name="3"><path class="aeff593b-e493-4d35-8ac7-75d2cfc054b0" d="M1988.88,1076.83a997,997,0,0,1-20.46,137.06c-112.5,509.4-598,840-1106,768.32q-38.13-5.37-76.33-13.79a999.52,999.52,0,0,1-132.93-39.17q-33.91-12.6-66.48-27.54a982.64,982.64,0,0,1-157.09-90.09q-21.33-15-41.76-31.07a993.56,993.56,0,0,1-209.32-224.93q-5.46-8.08-10.78-16.3a994.74,994.74,0,0,1-138.48-335q-6.94-33-11.67-66.54a989.55,989.55,0,0,1,14-351.65c112.53-509.4,598-840,1106-768.32q38.13,5.36,76.33,13.79a989.47,989.47,0,0,1,342,146.75q19.53,13.23,38.35,27.3a995.47,995.47,0,0,1,307.41,381.2q8.13,17.7,15.54,35.74a982.09,982.09,0,0,1,48.63,151c4,16.86,7.47,33.82,10.57,50.94,2.25,12.5,4.27,25.1,6.05,37.72A982.12,982.12,0,0,1,1988.88,1076.83Z"/><path class="a090f39d-f992-4a10-844a-29519e2417a2" d="M1982.4,862.24l-1120,1120q-38.13-5.37-76.33-13.79a999.52,999.52,0,0,1-132.93-39.17q-33.91-12.6-66.48-27.54a982.64,982.64,0,0,1-157.09-90.09q-21.33-15-41.76-31.07a993.56,993.56,0,0,1-209.32-224.93q-5.46-8.08-10.78-16.3a994.74,994.74,0,0,1-138.48-335q-6.94-33-11.67-66.54l1120-1120q38.13,5.36,76.33,13.79a989.38,989.38,0,0,1,342,146.75q19.53,13.23,38.35,27.3a995.47,995.47,0,0,1,307.41,381.2q8.13,17.7,15.54,35.74a981,981,0,0,1,48.63,151c4,16.86,7.47,33.82,10.57,50.94C1978.6,837,1980.62,849.62,1982.4,862.24Z"/><ellipse class="f22f2d59-5311-4fba-8cb4-8348d8ad281c" cx="873.01" cy="346.27" rx="233.61" ry="118.04" transform="translate(10.85 718.73) rotate(-45)"/></g></svg>