<svg id="a4d84fc3-c54a-44e1-af32-7734210b36a1" data-name="Planets" xmlns="http://www.w3.org/2000/svg" viewBox="0 0 2000 2000"><defs><style>.a787dcda-cc6d-4c07-8dbe-85d601d5134d{fill:#53917e;}.b5ac7ed7-8859-4020-a643-705bcefc6794{fill:#396b5a;}.a3160178-8cb1-4942-b42e-8ff96bc7aebd{fill:#2e5545;}</style></defs><g id="f62b64a8-d021-4040-bd5c-08c6fb5a317d" data-name="1"><path class="a787dcda-cc6d-4c07-8dbe-85d601d5134d" d="M1968.4,1213.89C1850.27,1748.74,1321,2086.53,786.11,1968.4a997.62,997.62,0,0,1-132.93-39.18,983.23,983.23,0,0,1-223.56-117.63q-21.31-15-41.76-31.06A990.82,990.82,0,0,1,31.6,786.11C149.73,251.26,679-86.53,1213.89,31.6a993.35,993.35,0,0,1,751.85,742q6,25.29,10.59,50.92a983.83,983.83,0,0,1,12.53,252.31A998.54,998.54,0,0,1,1968.4,1213.89Z"/><path class="b5ac7ed7-8859-4020-a643-705bcefc6794" d="M1976.33,824.52,429.62,1811.59A995.36,995.36,0,0,1,29.28,1204.31L1594.17,205.64a995.42,995.42,0,0,1,382.16,618.88Z"/><path class="a3160178-8cb1-4942-b42e-8ff96bc7aebd" d="M1965.74,773.6,387.86,1780.53a992.74,992.74,0,0,1-220.1-241.21C268.59,1404.1,420.36,1237.33,582,1191c284.37-81.65,621.3-156.19,789.92-286,114.09-87.84,344.33-224.37,545.18-282.42A983.31,983.31,0,0,1,1965.74,773.6Z"/></g></svg>