<svg id="Planets" xmlns="http://www.w3.org/2000/svg" viewBox="0 0 2000 2000"><defs><style>.cls-1{fill:#53917e;}.cls-2{fill:#396b5a;}.cls-3{fill:#2e5545;}</style></defs><g id="_1" data-name="1"><path class="cls-1" d="M1292.94,1064.7c-35.74,161.79-195.85,264-357.64,228.24a301.61,301.61,0,0,1-40.21-11.85,297.7,297.7,0,0,1-67.63-35.58q-6.45-4.54-12.63-9.4A299.73,299.73,0,0,1,707.06,935.3c35.74-161.79,195.85-264,357.64-228.24a300.59,300.59,0,0,1,227.44,224.45q1.8,7.65,3.2,15.41a297.51,297.51,0,0,1,3.79,76.32A301.73,301.73,0,0,1,1292.94,1064.7Z"/><path class="cls-2" d="M1295.34,946.92,827.46,1245.51a301,301,0,0,1-121.1-183.71l473.37-302.09a301.14,301.14,0,0,1,115.61,187.21Z"/><path class="cls-3" d="M1292.14,931.51l-477.31,304.6a300.16,300.16,0,0,1-66.58-73c30.5-40.9,76.41-91.35,125.32-105.38,86-24.7,187.94-47.25,238.95-86.5,34.51-26.57,104.16-67.87,164.91-85.43A297.75,297.75,0,0,1,1292.14,931.51Z"/></g></svg>