<svg id="faac59fc-0d43-435c-924e-b85ccb95893f" data-name="Planets" xmlns="http://www.w3.org/2000/svg" viewBox="0 0 2000 2000"><defs><style>.ec12f0f4-d98d-4510-b673-263be9d32718{fill:#bb5a30;}.ba11e0d1-192d-4177-911a-53c765c9f64e{fill:#d17b5e;}</style></defs><g id="babd5e21-d026-4a29-ae97-8dc2e992c135" data-name="2"><path class="ec12f0f4-d98d-4510-b673-263be9d32718" d="M1988.87,1076.83a998.54,998.54,0,0,1-20.46,137.06c-118.12,534.85-647.45,872.63-1182.3,754.52a999,999,0,0,1-132.92-39.18q-33.93-12.59-66.48-27.53a982.74,982.74,0,0,1-157.1-90.09q-21.32-15-41.75-31.07a993.56,993.56,0,0,1-209.32-224.93q-5.46-8.08-10.78-16.3A988.62,988.62,0,0,1,31.59,786.11C149.74,251.27,679-86.52,1213.89,31.59a989.33,989.33,0,0,1,341.95,146.75q19.53,13.24,38.35,27.3a995.47,995.47,0,0,1,307.41,381.2q8.13,17.7,15.53,35.73a980.62,980.62,0,0,1,48.63,151c4,16.86,7.47,33.82,10.58,50.95A983.24,983.24,0,0,1,1988.87,1076.83Z"/><path class="ba11e0d1-192d-4177-911a-53c765c9f64e" d="M1901.6,586.84,586.71,1901.7a982.74,982.74,0,0,1-157.1-90.09q-21.32-15-41.75-31.07a993.56,993.56,0,0,1-209.32-224.93L1555.84,178.34q19.53,13.24,38.35,27.3a995.47,995.47,0,0,1,307.41,381.2Z"/></g></svg>