<svg id="a48e2b85-90e4-4a3f-bd55-8d843d6bf70d" data-name="Spaceship" xmlns="http://www.w3.org/2000/svg" viewBox="0 0 2000 2000"><defs><style>.f5afeb8c-bfd7-4c66-94d2-3ada4c88c282{fill:#febe45;opacity:0.6;}.fb9b5e48-11ff-41e1-8986-49b2815a25fb{fill:#f4f4f5;}.ffa31d17-dfa3-48c9-83cb-0d97933f80cd{fill:#cfcfce;}</style></defs><rect class="f5afeb8c-bfd7-4c66-94d2-3ada4c88c282" x="535.22" y="159.92" width="197.33" height="2367.06" transform="translate(1135.62 -54.73) rotate(45)"/><g id="a352f1f2-1ff4-4473-bd73-93f7eb84afe3" data-name="Layer 3"><path class="fb9b5e48-11ff-41e1-8986-49b2815a25fb" d="M1859.66,297c-22.13,55.75-147.06,153.82-249,226.68,0,0-9.4,108.12-34.57,131S1484.54,718,1484.54,718l-7.42-103.74a1.25,1.25,0,0,0-.12.08s-44.17-3.57-77.84-45.58c-12.36-15.44-23.32-36.07-30.13-63.62l0,.05-104-6.67s40-66.66,62.66-92,133.25-34.69,133.25-34.69c73.31-101.31,172.41-226.3,226.75-244.16,93.34-30.67,156,10.67,156,10.67S1895.66,206.34,1859.66,297Z"/><path class="ffa31d17-dfa3-48c9-83cb-0d97933f80cd" d="M1843.66,138.34l-444.5,430.42c-12.36-15.44-23.32-36.07-30.13-63.62l0,.05-104-6.67s40-66.66,62.66-92,133.25-34.69,133.25-34.69c73.31-101.31,172.41-226.3,226.75-244.16C1781,97,1843.66,138.34,1843.66,138.34Z"/></g></svg>