<svg id="a78d0fc7-f35b-4295-a99b-aa977097769f" data-name="Spaceship" xmlns="http://www.w3.org/2000/svg" viewBox="0 0 2000 2000"><defs><style>.a2bc5085-2a88-40be-bb96-b7ee56b14ccc{fill:#af929d;opacity:0.6;}.a32fca67-5cd1-4685-b2f6-4f547473ac69{fill:#f4f4f5;}.b3625e1b-8769-4837-85d8-b66d8c98f1fa{fill:#cfcfce;}</style></defs><rect class="a2bc5085-2a88-40be-bb96-b7ee56b14ccc" x="535.22" y="159.92" width="197.33" height="2367.06" transform="translate(1135.62 -54.73) rotate(45)"/><g id="adee53f9-d6ff-4e50-80a9-6a105c9f7a52" data-name="Layer 3"><path class="a32fca67-5cd1-4685-b2f6-4f547473ac69" d="M1859.66,297c-22.13,55.75-147.06,153.82-249,226.68,0,0-9.4,108.12-34.57,131S1484.54,718,1484.54,718l-7.42-103.74a1.25,1.25,0,0,0-.12.08s-44.17-3.57-77.84-45.58c-12.36-15.44-23.32-36.07-30.13-63.62l0,.05-104-6.67s40-66.66,62.66-92,133.25-34.69,133.25-34.69c73.31-101.31,172.41-226.3,226.75-244.16,93.34-30.67,156,10.67,156,10.67S1895.66,206.34,1859.66,297Z"/><path class="b3625e1b-8769-4837-85d8-b66d8c98f1fa" d="M1843.66,138.34l-444.5,430.42c-12.36-15.44-23.32-36.07-30.13-63.62l0,.05-104-6.67s40-66.66,62.66-92,133.25-34.69,133.25-34.69c73.31-101.31,172.41-226.3,226.75-244.16C1781,97,1843.66,138.34,1843.66,138.34Z"/></g></svg>